<svg width="260" height="260" viewBox="0 0 260 260" xmlns="http://www.w3.org/2000/svg">
    <path d="M130 0C58.204 0 0 58.204 0 130c0 71.796 58.204 130 130 130 71.796 0 130-58.204 130-130C259.92 58.238 201.762.08 130 0zm100.676 62.357-9.01 38.298-47.465 15.82-39.868-31.888V37.599l45.5-18.198a122.068 122.068 0 0 1 50.843 42.956zm.724 134.139-42.974 6.786-23.4-30.911 11.921-47.667 46.94-15.643 26.888 32.265a120.54 120.54 0 0 1-19.375 55.17zM71.764 203.31 28.6 196.496a120.56 120.56 0 0 1-19.37-55.182l26.867-32.265 46.939 15.642 11.92 47.692-23.192 30.928zm-63.06-74.928a120.55 120.55 0 0 1 14.22-55.374l7.028 29.9-21.247 25.474zM103.05 169l-11.496-46.029L130 92.217l38.454 30.767L156.95 169h-53.9zm126.998-66.109 7.028-29.9a120.543 120.543 0 0 1 14.22 55.376l-21.248-25.476zM168.016 14.8 130 30.003 91.78 14.868a120.89 120.89 0 0 1 76.236-.07zM79.96 19.5l45.708 18.114v46.973l-39.868 31.888-47.466-15.82-9.009-38.298A122.093 122.093 0 0 1 79.96 19.5zM35.841 206.413l35.225 5.565 21.303 33.367a121.733 121.733 0 0 1-56.528-38.932zm68.952 42.27-25.858-40.484 22.898-30.532h56.334l23.226 30.68-22.532 39.489a120.958 120.958 0 0 1-54.063.867l-.005-.02zm66.105-4.461 18.47-32.322 34.808-5.491a121.801 121.801 0 0 1-53.278 37.813z" fill="#000" fill-rule="nonzero" opacity=".1"/>
</svg>
