<svg width="338" height="260" viewBox="0 0 338 260" xmlns="http://www.w3.org/2000/svg">
    <path d="M321.134.344H65.324a4.949 4.949 0 1 0 0 9.898h98.66V70.76c-30.472 2.524-54.498 28.128-54.498 59.24 0 31.11 24.026 56.714 54.498 59.24v60.516H16.733a6.842 6.842 0 0 1-6.834-6.834v-31.431h48.697c6.719 0 12.183-5.465 12.183-12.182V60.69c0-6.717-5.464-12.181-12.183-12.181H9.9V17.076a6.841 6.841 0 0 1 6.834-6.834h31.432a4.949 4.949 0 1 0 0-9.898H16.733C7.506.344 0 7.849 0 17.076v225.847c0 9.227 7.506 16.733 16.733 16.733h304.402c9.227 0 16.733-7.506 16.733-16.733V17.076c0-9.227-7.506-16.732-16.734-16.732zM9.9 58.407h48.697a2.286 2.286 0 0 1 2.284 2.283v138.62a2.286 2.286 0 0 1-2.284 2.282H9.9V58.407zm154.085 62.207a10.607 10.607 0 0 0-5.662 9.385c0 4.072 2.296 7.604 5.662 9.383V179.3c-25.005-2.491-44.598-23.65-44.598-49.3s19.593-46.809 44.598-49.3v39.914zm9.9 18.768a10.606 10.606 0 0 0 0-18.768V80.699c25.005 2.491 44.598 23.65 44.598 49.3 0 25.651-19.594 46.809-44.599 49.3v-39.917zm154.085-90.874H279.27c-6.718 0-12.183 5.464-12.183 12.182v13.214a4.949 4.949 0 1 0 9.898 0V60.69a2.286 2.286 0 0 1 2.284-2.283h48.699v143.185H279.27a2.286 2.286 0 0 1-2.284-2.283V91.063a4.949 4.949 0 1 0-9.898 0v108.245c0 6.718 5.465 12.182 12.183 12.182h48.698v31.432a6.842 6.842 0 0 1-6.835 6.834h-147.25V189.24c30.471-2.524 54.497-28.127 54.497-59.24 0-31.112-24.026-56.715-54.498-59.239V10.243h147.252a6.841 6.841 0 0 1 6.834 6.833v31.432z" fill="#000" fill-rule="nonzero" opacity=".1"/>
</svg>
